<?xml version="1.0" standalone="no"?>
<svg xmlns:xlink="http://www.w3.org/1999/xlink" id="wave" style="transform:rotate(0deg); transition: 0.3s" viewBox="0 0 1440 490" version="1.1" xmlns="http://www.w3.org/2000/svg"><defs><linearGradient id="sw-gradient-0" x1="0" x2="0" y1="1" y2="0"><stop stop-color="rgba(248.49, 248.49, 248.49, 1)" offset="0%"/><stop stop-color="rgba(199.483, 207.985, 255, 1)" offset="100%"/></linearGradient></defs><path style="transform:translate(0, 0px); opacity:1" fill="url(#sw-gradient-0)" d="M0,245L40,253.2C80,261,160,278,240,269.5C320,261,400,229,480,253.2C560,278,640,359,720,375.7C800,392,880,343,960,343C1040,343,1120,392,1200,375.7C1280,359,1360,278,1440,245C1520,212,1600,229,1680,196C1760,163,1840,82,1920,89.8C2000,98,2080,196,2160,212.3C2240,229,2320,163,2400,147C2480,131,2560,163,2640,187.8C2720,212,2800,229,2880,228.7C2960,229,3040,212,3120,196C3200,180,3280,163,3360,204.2C3440,245,3520,343,3600,392C3680,441,3760,441,3840,383.8C3920,327,4000,212,4080,179.7C4160,147,4240,196,4320,204.2C4400,212,4480,180,4560,187.8C4640,196,4720,245,4800,269.5C4880,294,4960,294,5040,277.7C5120,261,5200,229,5280,236.8C5360,245,5440,294,5520,285.8C5600,278,5680,212,5720,179.7L5760,147L5760,490L5720,490C5680,490,5600,490,5520,490C5440,490,5360,490,5280,490C5200,490,5120,490,5040,490C4960,490,4880,490,4800,490C4720,490,4640,490,4560,490C4480,490,4400,490,4320,490C4240,490,4160,490,4080,490C4000,490,3920,490,3840,490C3760,490,3680,490,3600,490C3520,490,3440,490,3360,490C3280,490,3200,490,3120,490C3040,490,2960,490,2880,490C2800,490,2720,490,2640,490C2560,490,2480,490,2400,490C2320,490,2240,490,2160,490C2080,490,2000,490,1920,490C1840,490,1760,490,1680,490C1600,490,1520,490,1440,490C1360,490,1280,490,1200,490C1120,490,1040,490,960,490C880,490,800,490,720,490C640,490,560,490,480,490C400,490,320,490,240,490C160,490,80,490,40,490L0,490Z"/><defs><linearGradient id="sw-gradient-1" x1="0" x2="0" y1="1" y2="0"><stop stop-color="rgba(218.023, 216.273, 237.106, 1)" offset="0%"/><stop stop-color="rgba(190.333, 194.132, 234.829, 1)" offset="100%"/></linearGradient></defs><path style="transform:translate(0, 50px); opacity:0.9" fill="url(#sw-gradient-1)" d="M0,98L40,138.8C80,180,160,261,240,310.3C320,359,400,376,480,351.2C560,327,640,261,720,261.3C800,261,880,327,960,334.8C1040,343,1120,294,1200,302.2C1280,310,1360,376,1440,383.8C1520,392,1600,343,1680,326.7C1760,310,1840,327,1920,318.5C2000,310,2080,278,2160,245C2240,212,2320,180,2400,196C2480,212,2560,278,2640,269.5C2720,261,2800,180,2880,147C2960,114,3040,131,3120,138.8C3200,147,3280,147,3360,130.7C3440,114,3520,82,3600,57.2C3680,33,3760,16,3840,73.5C3920,131,4000,261,4080,318.5C4160,376,4240,359,4320,359.3C4400,359,4480,376,4560,326.7C4640,278,4720,163,4800,106.2C4880,49,4960,49,5040,65.3C5120,82,5200,114,5280,130.7C5360,147,5440,147,5520,147C5600,147,5680,147,5720,147L5760,147L5760,490L5720,490C5680,490,5600,490,5520,490C5440,490,5360,490,5280,490C5200,490,5120,490,5040,490C4960,490,4880,490,4800,490C4720,490,4640,490,4560,490C4480,490,4400,490,4320,490C4240,490,4160,490,4080,490C4000,490,3920,490,3840,490C3760,490,3680,490,3600,490C3520,490,3440,490,3360,490C3280,490,3200,490,3120,490C3040,490,2960,490,2880,490C2800,490,2720,490,2640,490C2560,490,2480,490,2400,490C2320,490,2240,490,2160,490C2080,490,2000,490,1920,490C1840,490,1760,490,1680,490C1600,490,1520,490,1440,490C1360,490,1280,490,1200,490C1120,490,1040,490,960,490C880,490,800,490,720,490C640,490,560,490,480,490C400,490,320,490,240,490C160,490,80,490,40,490L0,490Z"/></svg>